<svg width="65" height="65" viewBox="0 0 65 65" fill="none" xmlns="http://www.w3.org/2000/svg">
<circle cx="32.5" cy="32.5" r="32.2" fill="white" stroke="#A6A6A6" stroke-width="0.6"/>
<path d="M42.24 30V38C42.24 39.1 41.3205 40 40.1811 40H25.7989C24.6695 40 23.74 39.1 23.74 38V30C23.74 28.9 24.6595 28 25.7989 28H28.1376C28.7873 28 29.357 27.6 29.5669 27C29.7767 26.4 30.3464 26 30.9961 26H34.9939C35.6436 26 36.2132 26.4 36.4231 27C36.633 27.6 37.2027 28 37.8523 28H40.1911C41.3205 28 42.24 28.9 42.24 30Z" stroke="#054DB5" stroke-width="1.5" stroke-linecap="round" stroke-linejoin="round"/>
<path d="M32.995 37C34.9822 37 36.5931 35.433 36.5931 33.5C36.5931 31.567 34.9822 30 32.995 30C31.0079 30 29.397 31.567 29.397 33.5C29.397 35.433 31.0079 37 32.995 37Z" stroke="#054DB5" stroke-width="1.5" stroke-linecap="round" stroke-linejoin="round"/>
<path d="M26.8283 28V27" stroke="#054DB5" stroke-width="1.5" stroke-linecap="round" stroke-linejoin="round"/>
</svg>
