<svg width="93" height="90" viewBox="0 0 93 90" fill="none" xmlns="http://www.w3.org/2000/svg">
<circle cx="45" cy="45" r="45" fill="#91939F"/>
<path d="M45 28.3333C40.6333 28.3333 37.0833 31.8833 37.0833 36.25C37.0833 40.5333 40.4333 44 44.8 44.15C44.9333 44.1333 45.0666 44.1333 45.1666 44.15C45.2 44.15 45.2166 44.15 45.25 44.15C45.2666 44.15 45.2666 44.15 45.2833 44.15C49.55 44 52.9 40.5333 52.9166 36.25C52.9166 31.8833 49.3666 28.3333 45 28.3333Z" fill="white"/>
<path d="M53.4667 48.5834C48.8167 45.4834 41.2334 45.4834 36.5501 48.5834C34.4334 50 33.2667 51.9167 33.2667 53.9667C33.2667 56.0167 34.4334 57.9167 36.5334 59.3167C38.8667 60.8834 41.9334 61.6667 45.0001 61.6667C48.0667 61.6667 51.1334 60.8834 53.4667 59.3167C55.5667 57.9 56.7334 56 56.7334 53.9334C56.7167 51.8834 55.5667 49.9834 53.4667 48.5834Z" fill="white"/>
<rect x="67" y="61" width="26" height="26" rx="13" fill="#F2F5F9"/>
<path d="M80 64C74.49 64 70 68.49 70 74C70 79.51 74.49 84 80 84C85.51 84 90 79.51 90 74C90 68.49 85.51 64 80 64ZM84 74.75H80.75V78C80.75 78.41 80.41 78.75 80 78.75C79.59 78.75 79.25 78.41 79.25 78V74.75H76C75.59 74.75 75.25 74.41 75.25 74C75.25 73.59 75.59 73.25 76 73.25H79.25V70C79.25 69.59 79.59 69.25 80 69.25C80.41 69.25 80.75 69.59 80.75 70V73.25H84C84.41 73.25 84.75 73.59 84.75 74C84.75 74.41 84.41 74.75 84 74.75Z" fill="#543E92"/>
</svg>
