<svg width="65" height="65" viewBox="0 0 65 65" fill="none" xmlns="http://www.w3.org/2000/svg">
<circle cx="32.5" cy="32.5" r="32.2" fill="white" stroke="#A6A6A6" stroke-width="0.6"/>
<path d="M38.18 42.25H25.82C24.12 42.25 22.75 40.87 22.75 39.18V26.82C22.75 25.12 24.13 23.75 25.82 23.75H38.18C39.88 23.75 41.25 25.13 41.25 26.82V39.18C41.25 40.87 39.87 42.25 38.18 42.25Z" stroke="#054DB5" stroke-width="1.5" stroke-linecap="round" stroke-linejoin="round"/>
<path d="M22.75 38.4499L26.28 34.9199C26.88 34.3199 27.86 34.3199 28.46 34.9199L29.36 35.8199C29.96 36.4199 30.94 36.4199 31.54 35.8199L35.53 31.8299C36.13 31.2299 37.11 31.2299 37.71 31.8299L41.24 35.3599" stroke="#054DB5" stroke-width="1.5" stroke-linecap="round" stroke-linejoin="round"/>
<path d="M28.15 26.9102C27.31 26.9102 26.63 27.5901 26.63 28.4301C26.63 29.2701 27.31 29.9502 28.15 29.9502C28.99 29.9502 29.67 29.2701 29.67 28.4301C29.67 27.5901 28.98 26.9102 28.15 26.9102Z" fill="#054DB5"/>
</svg>
