<svg width="20" height="23" viewBox="0 0 20 23" fill="none" xmlns="http://www.w3.org/2000/svg">
<path d="M19.4673 17.924C19.1195 18.7275 18.7078 19.4672 18.2308 20.1472C17.5805 21.0743 17.0481 21.716 16.6378 22.0724C16.0018 22.6573 15.3204 22.9568 14.5906 22.9739C14.0667 22.9739 13.435 22.8248 12.6996 22.5224C11.9617 22.2214 11.2837 22.0724 10.6637 22.0724C10.0135 22.0724 9.31611 22.2214 8.5702 22.5224C7.82315 22.8248 7.22133 22.9824 6.7612 22.998C6.06143 23.0278 5.36393 22.7197 4.6677 22.0724C4.22333 21.6848 3.66751 21.0204 3.00167 20.0791C2.28727 19.0739 1.69994 17.9084 1.23981 16.5795C0.74703 15.1442 0.5 13.7543 0.5 12.4087C0.5 10.8673 0.833064 9.53789 1.50019 8.42385C2.02448 7.529 2.72199 6.82312 3.59497 6.30493C4.46795 5.78674 5.4112 5.52267 6.42701 5.50578C6.98282 5.50578 7.7117 5.6777 8.61748 6.01559C9.52069 6.35462 10.1006 6.52655 10.3549 6.52655C10.545 6.52655 11.1893 6.32552 12.2815 5.92473C13.3143 5.55305 14.186 5.39916 14.9001 5.45978C16.8352 5.61595 18.289 6.37876 19.2558 7.75303C17.5252 8.80163 16.6691 10.2703 16.6861 12.1544C16.7017 13.622 17.2341 14.8432 18.2804 15.8129C18.7546 16.2629 19.2842 16.6107 19.8734 16.8578C19.7456 17.2283 19.6107 17.5832 19.4673 17.924ZM15.0293 0.460131C15.0293 1.61039 14.6091 2.68439 13.7714 3.67847C12.7606 4.86023 11.538 5.54311 10.2121 5.43536C10.1952 5.29736 10.1854 5.15213 10.1854 4.99951C10.1854 3.89526 10.6661 2.71349 11.5198 1.74724C11.946 1.25801 12.488 0.851218 13.1454 0.526714C13.8013 0.207053 14.4217 0.0302728 15.0052 0C15.0222 0.153772 15.0293 0.307554 15.0293 0.460116V0.460131Z" fill="black"/>
</svg>
