<svg width="21" height="16" viewBox="0 0 21 16" fill="none" xmlns="http://www.w3.org/2000/svg">
<path d="M19.51 5V13C19.51 14.1 18.59 15 17.45 15H3.06C1.93 15 1 14.1 1 13V5C1 3.9 1.92 3 3.06 3H5.40002C6.05002 3 6.62002 2.6 6.83002 2C7.04002 1.4 7.61001 1 8.26001 1H12.26C12.91 1 13.48 1.4 13.69 2C13.9 2.6 14.47 3 15.12 3H17.46C18.59 3 19.51 3.9 19.51 5Z" stroke="#A5A5A5" stroke-opacity="0.76" stroke-width="1.5" stroke-linecap="round" stroke-linejoin="round"/>
<path d="M10.26 12C12.2483 12 13.86 10.433 13.86 8.5C13.86 6.567 12.2483 5 10.26 5C8.27182 5 6.66003 6.567 6.66003 8.5C6.66003 10.433 8.27182 12 10.26 12Z" stroke="#A5A5A5" stroke-opacity="0.76" stroke-width="1.5" stroke-linecap="round" stroke-linejoin="round"/>
<path d="M4.08997 3V2" stroke="#A5A5A5" stroke-opacity="0.76" stroke-width="1.5" stroke-linecap="round" stroke-linejoin="round"/>
</svg>
