<svg width="33" height="33" viewBox="0 0 33 33" fill="none" xmlns="http://www.w3.org/2000/svg">
<path d="M10.8487 17.9162C11.6309 17.9162 12.265 17.2822 12.265 16.5C12.265 15.7178 11.6309 15.0837 10.8487 15.0837C10.0666 15.0837 9.4325 15.7178 9.4325 16.5C9.4325 17.2822 10.0666 17.9162 10.8487 17.9162Z" fill="#8D8989"/>
<path d="M16.4999 17.9162C17.282 17.9162 17.9161 17.2822 17.9161 16.5C17.9161 15.7178 17.282 15.0837 16.4999 15.0837C15.7177 15.0837 15.0836 15.7178 15.0836 16.5C15.0836 17.2822 15.7177 17.9162 16.4999 17.9162Z" fill="#8D8989"/>
<path d="M22.1511 17.9162C22.9333 17.9162 23.5674 17.2822 23.5674 16.5C23.5674 15.7178 22.9333 15.0837 22.1511 15.0837C21.3689 15.0837 20.7349 15.7178 20.7349 16.5C20.7349 17.2822 21.3689 17.9162 22.1511 17.9162Z" fill="#8D8989"/>
<path d="M28.105 21.725H28.0912C28.8062 20.13 29.2188 18.3563 29.2188 16.5C29.2188 9.47375 23.5263 3.78125 16.5 3.78125C9.47375 3.78125 3.78125 9.47375 3.78125 16.5C3.78125 23.5263 9.47375 29.2188 16.5 29.2188C18.5762 29.2188 20.5425 28.71 22.275 27.83L29.15 28.8475L28.105 21.725Z" stroke="#8D8989" stroke-width="1.5" stroke-linecap="round" stroke-linejoin="round"/>
</svg>
