<svg width="24" height="24" viewBox="0 0 24 24" fill="none" xmlns="http://www.w3.org/2000/svg">
<path d="M20.2 9.01006C21.6 10.7001 21.6 13.3001 20.2 14.9901C18.2 17.4001 15.27 18.9401 12 18.9401C8.73001 18.9401 5.81 17.4101 3.8 14.9901C2.4 13.3001 2.4 10.7001 3.8 9.01006C5.8 6.60006 8.73001 5.06006 12 5.06006C15.27 5.06006 18.19 6.59006 20.2 9.01006Z" stroke="white" stroke-width="1.5" stroke-linecap="round" stroke-linejoin="round"/>
<path d="M20.2 9.01006C21.6 10.7001 21.6 13.3001 20.2 14.9901C18.2 17.4001 15.27 18.9401 12 18.9401C8.73001 18.9401 5.81 17.4101 3.8 14.9901C2.4 13.3001 2.4 10.7001 3.8 9.01006C5.8 6.60006 8.73001 5.06006 12 5.06006C15.27 5.06006 18.19 6.59006 20.2 9.01006Z" stroke="white" stroke-width="1.5" stroke-linecap="round" stroke-linejoin="round"/>
<path d="M12 15.0802C13.7011 15.0802 15.08 13.7012 15.08 12.0002C15.08 10.2991 13.7011 8.92017 12 8.92017C10.299 8.92017 8.92004 10.2991 8.92004 12.0002C8.92004 13.7012 10.299 15.0802 12 15.0802Z" stroke="white" stroke-width="1.5" stroke-linecap="round" stroke-linejoin="round"/>
</svg>
