<svg width="26" height="24" fill="none" xmlns="http://www.w3.org/2000/svg"><path d="M23.285 10.041h-.845V10H13v4h5.928c-.865 2.328-3.189 4-5.928 4-3.476 0-6.294-2.687-6.294-6S9.524 6 13 6c1.604 0 3.064.577 4.175 1.52l2.967-2.829A10.722 10.722 0 0 0 13 2C7.207 2 2.51 6.478 2.51 12c0 5.523 4.697 10 10.49 10s10.49-4.477 10.49-10a9.61 9.61 0 0 0-.205-1.959Z" fill="#FFC107"/><path d="m3.72 7.346 3.446 2.409C8.1 7.554 10.357 6 13 6c1.604 0 3.064.577 4.175 1.52l2.967-2.829A10.722 10.722 0 0 0 13 2C8.971 2 5.477 4.168 3.72 7.346Z" fill="#FF3D00"/><path d="M13 22c2.71 0 5.171-.988 7.033-2.596l-3.247-2.619A6.449 6.449 0 0 1 13 18c-2.728 0-5.045-1.659-5.917-3.973l-3.42 2.513C5.397 19.777 8.922 22 13 22Z" fill="#4CAF50"/><path d="M23.285 10.041h-.845V10H13v4h5.928a6.047 6.047 0 0 1-2.143 2.785h.001l3.246 2.619C19.802 19.602 23.49 17 23.49 12c0-.67-.072-1.325-.204-1.959Z" fill="#1976D2"/></svg>