<svg width="27" height="27" viewBox="0 0 27 27" fill="none" xmlns="http://www.w3.org/2000/svg">
<path d="M17.3225 26.2188H9.67749V18.0376C9.67749 17.2813 10.2962 16.6626 11.0525 16.6626H15.9475C16.7037 16.6626 17.3225 17.2813 17.3225 18.0376V26.2188V26.2188Z" stroke="#054DB5" stroke-width="1.5" stroke-linecap="round" stroke-linejoin="round"/>
<path d="M26.2188 12.6613V21.8875C26.2188 24.28 24.3762 26.2188 22.0938 26.2188H4.90625C2.62375 26.2188 0.78125 24.28 0.78125 21.8875V12.6613C0.78125 11.3688 1.3175 10.1588 2.26625 9.33379L10.86 1.78504C12.3862 0.437539 14.6138 0.437539 16.14 1.78504L24.7338 9.33379C25.6825 10.1588 26.2188 11.3688 26.2188 12.6613Z" stroke="#054DB5" stroke-width="1.5" stroke-linecap="round" stroke-linejoin="round"/>
</svg>
