<svg width="24" height="24" viewBox="0 0 24 24" fill="none" xmlns="http://www.w3.org/2000/svg">
<path d="M8.06006 2.04004H5.90005C3.79006 2.04004 2.07007 3.76004 2.07007 5.87004V7.94004C2.07007 8.35004 2.41007 8.69004 2.82007 8.69004C3.23007 8.69004 3.57007 8.35004 3.57007 7.94004V5.87004C3.57007 4.58004 4.62005 3.54004 5.90005 3.54004H8.06006C8.47006 3.54004 8.81006 3.20004 8.81006 2.79004C8.81006 2.38004 8.48006 2.04004 8.06006 2.04004Z" fill="#054DB5"/>
<path d="M18.0901 2.04004H15.9301C15.5201 2.04004 15.1801 2.38004 15.1801 2.79004C15.1801 3.20004 15.5201 3.54004 15.9301 3.54004H18.0901C19.3801 3.54004 20.4201 4.59004 20.4201 5.87004V7.94004C20.4201 8.35004 20.7601 8.69004 21.1701 8.69004C21.5801 8.69004 21.9201 8.35004 21.9201 7.94004V5.87004C21.9301 3.76004 20.2101 2.04004 18.0901 2.04004Z" fill="#054DB5"/>
<path d="M8.06006 20.4598H5.90005C4.61005 20.4598 3.57007 19.4098 3.57007 18.1298V16.0598C3.57007 15.6498 3.23007 15.3098 2.82007 15.3098C2.41007 15.3098 2.07007 15.6498 2.07007 16.0598V18.1298C2.07007 20.2398 3.79006 21.9598 5.90005 21.9598H8.06006C8.47006 21.9598 8.81006 21.6298 8.81006 21.2098C8.81006 20.7998 8.48006 20.4598 8.06006 20.4598Z" fill="#054DB5"/>
<path d="M21.1801 15.3098C20.7701 15.3098 20.4301 15.6498 20.4301 16.0598V18.1298C20.4301 19.4198 19.3801 20.4598 18.1001 20.4598H15.9401C15.5301 20.4598 15.1901 20.7998 15.1901 21.2098C15.1901 21.6198 15.5301 21.9598 15.9401 21.9598H18.1001C20.2101 21.9598 21.9301 20.2398 21.9301 18.1298V16.0598C21.9301 15.6398 21.5901 15.3098 21.1801 15.3098Z" fill="#054DB5"/>
<path d="M11.87 11.4898C13.64 11.4898 15.09 10.0498 15.09 8.2698C15.09 6.4898 13.65 5.0498 11.87 5.0498C10.09 5.0498 8.65002 6.4898 8.65002 8.2698C8.65002 10.0498 10.1 11.4898 11.87 11.4898Z" fill="#054DB5"/>
<path d="M14.29 12.46H9.86003C7.81003 12.46 6.15002 14.13 6.15002 16.17V16.58C6.15002 17.54 6.94002 18.33 7.90002 18.33H16.26C17.22 18.33 18.01 17.54 18.01 16.58V16.17C18 14.12 16.34 12.46 14.29 12.46Z" fill="#054DB5"/>
</svg>
