<svg width="21" height="21" viewBox="0 0 21 21" fill="none" xmlns="http://www.w3.org/2000/svg">
<path d="M3.06 5.12C4.19771 5.12 5.12 4.19771 5.12 3.06C5.12 1.92229 4.19771 1 3.06 1C1.92229 1 1 1.92229 1 3.06C1 4.19771 1.92229 5.12 3.06 5.12Z" stroke="#054DB5" stroke-width="1.5" stroke-linecap="round" stroke-linejoin="round"/>
<path d="M17.44 5.12C18.5777 5.12 19.5 4.19771 19.5 3.06C19.5 1.92229 18.5777 1 17.44 1C16.3023 1 15.38 1.92229 15.38 3.06C15.38 4.19771 16.3023 5.12 17.44 5.12Z" stroke="#054DB5" stroke-width="1.5" stroke-linecap="round" stroke-linejoin="round"/>
<path d="M3.06 19.4999C4.19771 19.4999 5.12 18.5776 5.12 17.4399C5.12 16.3022 4.19771 15.3799 3.06 15.3799C1.92229 15.3799 1 16.3022 1 17.4399C1 18.5776 1.92229 19.4999 3.06 19.4999Z" stroke="#054DB5" stroke-width="1.5" stroke-linecap="round" stroke-linejoin="round"/>
<path d="M17.44 19.4999C18.5777 19.4999 19.5 18.5776 19.5 17.4399C19.5 16.3022 18.5777 15.3799 17.44 15.3799C16.3023 15.3799 15.38 16.3022 15.38 17.4399C15.38 18.5776 16.3023 19.4999 17.44 19.4999Z" stroke="#054DB5" stroke-width="1.5" stroke-linecap="round" stroke-linejoin="round"/>
<path d="M11.62 6.13989H8.88001C7.36675 6.13989 6.14001 7.36663 6.14001 8.87989V11.6199C6.14001 13.1332 7.36675 14.3599 8.88001 14.3599H11.62C13.1333 14.3599 14.36 13.1332 14.36 11.6199V8.87989C14.36 7.36663 13.1333 6.13989 11.62 6.13989Z" stroke="#054DB5" stroke-width="1.5" stroke-linecap="round" stroke-linejoin="round"/>
<path d="M6.59998 13.8999L4.59998 15.8999" stroke="#054DB5" stroke-width="1.5" stroke-linecap="round" stroke-linejoin="round"/>
<path d="M6.60004 6.59992L4.67004 4.66992" stroke="#054DB5" stroke-width="1.5" stroke-linecap="round" stroke-linejoin="round"/>
<path d="M13.85 6.6499L15.85 4.6499" stroke="#054DB5" stroke-width="1.5" stroke-linecap="round" stroke-linejoin="round"/>
<path d="M15.89 15.8899L13.92 13.9199" stroke="#054DB5" stroke-width="1.5" stroke-linecap="round" stroke-linejoin="round"/>
<path d="M9.21997 10.25H11.28" stroke="#054DB5" stroke-width="1.5" stroke-linecap="round" stroke-linejoin="round"/>
</svg>
