<svg width="21" height="24" viewBox="0 0 21 24" fill="none" xmlns="http://www.w3.org/2000/svg">
<path d="M20 17.0299C20 18.0123 19.2025 18.8097 18.2202 18.8097H2.77981C1.79745 18.8097 1 18.0123 1 17.0299C1 16.0476 1.79745 15.2501 2.77981 15.2501H3.36921V9.30973C3.36921 5.38029 6.559 2.17896 10.5 2.17896C12.4647 2.17896 14.2445 2.9764 15.5389 4.2708C16.8333 5.55365 17.6308 7.33345 17.6308 9.30973V15.2501H18.2202C19.2025 15.2501 20 16.0476 20 17.0299Z" stroke="white" stroke-width="1.5" stroke-linecap="round" stroke-linejoin="round"/>
<path d="M10.5 2.19039V1" stroke="white" stroke-width="1.5" stroke-linecap="round" stroke-linejoin="round"/>
<path d="M14.0596 18.821C14.0596 20.7973 12.4647 22.3807 10.5 22.3807C8.5353 22.3807 6.94043 20.7858 6.94043 18.821H14.0596Z" stroke="white" stroke-width="1.5" stroke-linecap="round" stroke-linejoin="round"/>
</svg>
