<svg width="33" height="33" viewBox="0 0 33 33" fill="none" xmlns="http://www.w3.org/2000/svg">
<path d="M13.75 27.8852C10.9788 27.3363 8.47878 25.8559 6.66533 23.6897C4.85187 21.5236 3.83415 18.8022 3.78125 15.9776C3.84984 12.6723 5.2281 9.52937 7.61308 7.23979C9.99806 4.95021 13.1946 3.70133 16.5 3.76765C19.8054 3.70133 23.0019 4.95021 25.3869 7.23979C27.7719 9.52937 29.1502 12.6723 29.2188 15.9776C29.169 18.8046 28.1526 21.5292 26.3389 23.6981C24.5252 25.8671 22.0235 27.3496 19.25 27.8989" stroke="#E9E8E8" stroke-opacity="0.57" stroke-width="1.5" stroke-linecap="round" stroke-linejoin="round"/>
<path d="M13.7363 27.9125L12.3888 24.1038" stroke="#E9E8E8" stroke-opacity="0.57" stroke-width="1.5" stroke-linecap="round" stroke-linejoin="round"/>
<path d="M13.7362 27.9126L9.76245 29.2051" stroke="#E9E8E8" stroke-opacity="0.57" stroke-width="1.5" stroke-linecap="round" stroke-linejoin="round"/>
</svg>
